<?xml version="1.0" encoding="utf-8"?>
<!-- Generator: Adobe Illustrator 24.3.0, SVG Export Plug-In . SVG Version: 6.00 Build 0)  -->
<svg version="1.1" id="Layer_1" xmlns="http://www.w3.org/2000/svg" xmlns:xlink="http://www.w3.org/1999/xlink" x="0px" y="0px"
	 viewBox="0 0 800 166.2" style="enable-background:new 0 0 800 166.2;" xml:space="preserve">
<style type="text/css">
	.st0{fill:#5A00FF;}
</style>
<g>
	<path class="st0" d="M534.6,0c-10,0-18,8.1-18,18v130.1c0,10,8.1,18,18,18s18-8.1,18-18V18C552.6,8.1,544.6,0,534.6,0z"/>
	<path class="st0" d="M491.2,113.3c-0.7-17.6-11-33.9-27.5-40.5c8.4-7.2,11.8-16.9,11.8-27.1c0-30.4-25.7-44.4-56.8-44.4h-43
		c-11.2,0-18.9,11.4-14.6,21.8c2.4,5.9,8.2,9.7,14.6,9.7h43c13.8,0,20.8,7,20.8,16.6s-7,15.4-21.3,15.4h-17.4c-10.8,0-18.2,11-14,21
		c2.4,5.9,8.3,9.6,14.6,9.4c3.8,0,25.1,0,33,0c8.7,0,21.6,4.7,21.6,20.4c0,15.2-18.3,18.9-27.7,19.2c-7.5-0.2-14.3,5.1-15.5,12.8
		c-1.4,8.3,4.3,16.1,12.6,17.5c3.4,0.6,6.9,1.1,10.5,1.1c10.3,0.3,21.1-2.2,30.2-7.5C481.9,149.8,492.3,131.6,491.2,113.3z"/>
	<path class="st0" d="M216.7,0L216.7,0c12.9,0,21.6,13.1,16.7,24.9L179.7,155c-2.8,6.8-9.4,11.1-16.7,11.1l0,0
		c-12.9,0-21.6-13-16.7-24.9l53.8-130.1C202.9,4.4,209.4,0,216.7,0z"/>
	<path class="st0" d="M361.8,166.1L361.8,166.1c-7.3,0-13.9-4.4-16.7-11.1L301.5,43.8L257.8,155c-2.8,6.8-9.4,11.1-16.7,11.1l0,0
		c-12.9,0-21.6-13-16.7-24.9l51.2-124C280,6.8,290.2,0,301.5,0l0,0c11.3,0,21.4,6.8,25.7,17.2l51.2,124
		C383.4,153.1,374.7,166.1,361.8,166.1z"/>
	<path class="st0" d="M18,0L18,0c7.3,0,13.9,4.4,16.7,11.1l43.7,111.1L122,11.1C124.8,4.4,131.4,0,138.7,0l0,0
		c12.9,0,21.6,13.1,16.7,24.9l-51.2,124c-4.3,10.4-14.5,17.2-25.7,17.2l0,0c-11.3,0-21.4-6.8-25.7-17.2L1.4,24.9
		C-3.5,13.1,5.2,0,18,0z"/>
	<path class="st0" d="M784.2,133.3h-43.7V18.2c0-10-8.1-18.1-18.2-18.1s-18.2,8.1-18.2,18.1v130.9l0,0c0,8.7,7.1,15.8,15.8,15.8
		h64.2c8.7,0,15.8-7.1,15.8-15.8l0,0C800,140.4,792.9,133.3,784.2,133.3z"/>
	<path class="st0" d="M663.3,133.3h-43.7V18.2c0-10-8.1-18.1-18.2-18.1s-18.2,8.1-18.2,18.1v130.9l0,0c0,8.7,7.1,15.8,15.8,15.8
		h64.2c8.7,0,15.8-7.1,15.8-15.8l0,0C679.1,140.4,672,133.3,663.3,133.3z"/>
</g>
</svg>
